<?xml version="1.0" standalone="no"?>
<!DOCTYPE svg PUBLIC "-//W3C//DTD SVG 20010904//EN"
 "http://www.w3.org/TR/2001/REC-SVG-20010904/DTD/svg10.dtd">
<svg version="1.0" xmlns="http://www.w3.org/2000/svg"
 width="320.000000pt" height="320.000000pt" viewBox="0 0 320.000000 320.000000"
 preserveAspectRatio="xMidYMid meet">

<g transform="translate(0.000000,320.000000) scale(0.100000,-0.100000)"
fill="#7AFFE7" stroke="none">
<path d="M1365 3044 c-595 -110 -1049 -552 -1177 -1147 -31 -147 -31 -427 0
-574 126 -582 563 -1014 1152 -1140 134 -28 431 -26 569 5 295 66 521 190 731
401 216 217 349 469 405 771 24 128 25 370 1 500 -21 115 -82 303 -129 396
-201 398 -567 681 -1007 779 -107 24 -437 30 -545 9z m477 -320 c218 -44 439
-170 593 -337 366 -393 417 -957 128 -1389 -140 -209 -322 -357 -550 -447
-150 -59 -236 -76 -393 -75 -143 1 -224 15 -356 59 -226 76 -462 254 -591 445
-267 398 -266 848 3 1252 118 177 302 338 477 418 199 90 468 119 689 74z"/>
<path d="M1858 1994 l-428 -214 -216 -431 c-118 -237 -214 -432 -212 -434 2
-2 197 94 433 214 l430 216 218 433 c119 237 214 432 210 431 -5 0 -200 -97
-435 -215z m-148 -636 c0 -5 -121 -69 -270 -143 -148 -74 -270 -133 -270 -130
0 3 61 127 136 277 l136 271 134 -134 c74 -73 134 -137 134 -141z"/>
</g>
</svg>
