<?xml version="1.0" standalone="no"?>
<!DOCTYPE svg PUBLIC "-//W3C//DTD SVG 20010904//EN"
 "http://www.w3.org/TR/2001/REC-SVG-20010904/DTD/svg10.dtd">
<svg version="1.0" xmlns="http://www.w3.org/2000/svg"
 width="25.000000pt" height="25.000000pt" viewBox="0 0 512.000000 512.000000"
 preserveAspectRatio="xMidYMid meet">

<g transform="translate(0.000000,512.000000) scale(0.100000,-0.100000)"
fill="#ffffff" stroke="none">
<path d="M971 3814 c-90 -45 -134 -140 -110 -238 16 -67 85 -138 151 -154 35
-9 432 -12 1551 -12 1695 0 1574 -6 1645 76 96 109 68 264 -59 328 l-53 26
-1536 0 -1536 0 -53 -26z"/>
<path d="M980 2754 c-173 -75 -161 -342 18 -394 26 -8 505 -10 1584 -8 l1546
3 44 30 c138 97 118 306 -34 370 -33 13 -210 15 -1580 15 -1356 -1 -1547 -3
-1578 -16z"/>
<path d="M1006 1698 c-59 -16 -130 -91 -145 -154 -24 -98 20 -193 110 -238
l53 -26 1536 0 1536 0 53 26 c90 45 134 140 110 238 -16 67 -85 138 -151 154
-62 16 -3043 15 -3102 0z"/>
</g>
</svg>
